HIERARCHY
ROOT Hips
{
	OFFSET 0.000000 0.000000 0.000000
	CHANNELS 6 Xposition Yposition Zposition Xrotation Yrotation Zrotation
	JOINT LeftUpLeg_virtual
	{
		OFFSET 0.000000 0.000000 0.000000
		CHANNELS 3 Xrotation Yrotation Zrotation
		JOINT LeftUpLeg
		{
			OFFSET 10.205400 -3.823500 0.155100
			CHANNELS 3 Xrotation Yrotation Zrotation
			JOINT LeftLeg
			{
				OFFSET 0.708757 -12.982077 0.567790
				CHANNELS 3 Xrotation Yrotation Zrotation
				JOINT LeftFoot
				{
					OFFSET -0.708756 -10.717838 -2.184338
					CHANNELS 3 Xrotation Yrotation Zrotation
					JOINT LeftToeBase
					{
						OFFSET 0.108149 -7.191104 7.560241
						CHANNELS 3 Xrotation Yrotation Zrotation
						JOINT LeftToe_End
						{
							OFFSET 0.070230 0.081724 4.490308
							CHANNELS 3 Xrotation Yrotation Zrotation
							End Site
							{
								OFFSET 0 0 0
							}
						}
					}
				}
			}
		}
	}
	JOINT RightUpLeg_virtual
	{
		OFFSET 0.000000 0.000000 0.000000
		CHANNELS 3 Xrotation Yrotation Zrotation
		JOINT RightUpLeg
		{
			OFFSET -10.205400 -3.823500 0.005500
			CHANNELS 3 Xrotation Yrotation Zrotation
			JOINT RightLeg
			{
				OFFSET -0.708756 -12.982134 0.610632
				CHANNELS 3 Xrotation Yrotation Zrotation
				JOINT RightFoot
				{
					OFFSET 0.708754 -10.717769 -1.945823
					CHANNELS 3 Xrotation Yrotation Zrotation
					JOINT RightToeBase
					{
						OFFSET -0.108140 -7.191069 7.372968
						CHANNELS 3 Xrotation Yrotation Zrotation
						JOINT RightToe_End
						{
							OFFSET -0.070227 0.081735 4.479403
							CHANNELS 3 Xrotation Yrotation Zrotation
							End Site
							{
								OFFSET 0 0 0
							}
						}
					}
				}
			}
		}
	}
	JOINT Spine_virtual
	{
		OFFSET 0.000000 0.000000 0.000000
		CHANNELS 3 Xrotation Yrotation Zrotation
		JOINT Spine
		{
			OFFSET 0.000000 6.876099 0.125700
			CHANNELS 3 Xrotation Yrotation Zrotation
			JOINT Spine1
			{
				OFFSET 0.000000 5.730043 0.104720
				CHANNELS 3 Xrotation Yrotation Zrotation
				JOINT Spine1_split
				{
					OFFSET 0.000000 5.730043 0.104720
					CHANNELS 3 Xrotation Yrotation Zrotation
					JOINT Spine2
					{
						OFFSET 0.000000 5.730043 0.104720
						CHANNELS 3 Xrotation Yrotation Zrotation
						JOINT Neck_virtual
						{
							OFFSET 0.000000 0.000000 0.000000
							CHANNELS 3 Xrotation Yrotation Zrotation
							JOINT Neck
							{
								OFFSET 0.000000 10.314075 0.188496
								CHANNELS 3 Xrotation Yrotation Zrotation
								JOINT Head
								{
									OFFSET 0.000000 7.643700 -2.377400
									CHANNELS 3 Xrotation Yrotation Zrotation
									JOINT HeadTop_End
									{
										OFFSET 0.000000 43.788605 -13.619600
										CHANNELS 3 Xrotation Yrotation Zrotation
										End Site
										{
											OFFSET 0 0 0
										}
									}
								}
							}
						}
						JOINT LeftShoulder_virtual
						{
							OFFSET 0.000000 0.000000 0.000000
							CHANNELS 3 Xrotation Yrotation Zrotation
							JOINT LeftShoulder
							{
								OFFSET 2.196100 4.412489 0.087492
								CHANNELS 3 Xrotation Yrotation Zrotation
								JOINT LeftShoulder_split
								{
									OFFSET 2.196100 4.412489 0.087492
									CHANNELS 3 Xrotation Yrotation Zrotation
									JOINT LeftArm
									{
										OFFSET 8.771219 -2.981674 -0.026999
										CHANNELS 3 Xrotation Yrotation Zrotation
										JOINT LeftForeArm
										{
											OFFSET 8.512804 0.000000 -0.000000
											CHANNELS 3 Xrotation Yrotation Zrotation
											JOINT LeftHand
											{
												OFFSET 18.484802 0.000000 -0.000000
												CHANNELS 3 Xrotation Yrotation Zrotation
												End Site
												{
													OFFSET 0 0 0
												}
											}
										}
									}
								}
							}
						}
						JOINT RightShoulder_virtual
						{
							OFFSET 0.000000 0.000000 0.000000
							CHANNELS 3 Xrotation Yrotation Zrotation
							JOINT RightShoulder
							{
								OFFSET -2.196100 4.412496 0.070690
								CHANNELS 3 Xrotation Yrotation Zrotation
								JOINT RightShoulder_split
								{
									OFFSET -2.196100 4.412496 0.070690
									CHANNELS 3 Xrotation Yrotation Zrotation
									JOINT RightArm
									{
										OFFSET -8.771282 -2.981682 -0.094208
										CHANNELS 3 Xrotation Yrotation Zrotation
										JOINT RightForeArm
										{
											OFFSET -8.494598 0.000000 0.000000
											CHANNELS 3 Xrotation Yrotation Zrotation
											JOINT RightHand
											{
												OFFSET -18.483803 0.000000 0.000001
												CHANNELS 3 Xrotation Yrotation Zrotation
												End Site
												{
													OFFSET 0 0 0
												}
											}
										}
									}
								}
							}
						}
					}
				}
			}
		}
	}
}
MOTION
Frames: 6
Frame Time: 0.03333333
3.393229 30.954414 0.977030 0.000000 0.000000 0.000000 5.588804 -13.246903 -1.452448 -34.530066 1.958304 14.981974 53.967722 9.741811 -1.704686 -21.838386 7.055925 -13.843275 -1.284569 -1.883656 -2.326733 0.000000 0.000000 0.000000 4.836319 -9.927367 -0.663402 -18.758240 -5.977535 -18.638517 50.202440 -12.529541 -10.748404 -21.509980 0.986905 13.626779 -15.970893 -4.771279 6.070498 0.000000 0.000000 0.000000 6.623949 -7.939863 -0.090354 12.988801 2.745735 -2.596992 8.222989 6.481757 -2.549986 0.031430 -1.518123 1.139034 0.000000 0.000000 0.000000 -1.786472 6.040594 -0.775448 -5.844316 1.103177 0.004935 -7.708219 8.222926 6.092036 0.000000 0.000000 0.000000 -3.206387 6.071808 -0.896199 -2.172762 0.479405 -3.099874 0.764866 -1.770911 1.277733 -14.032946 0.923906 -55.266356 -12.858806 -32.041599 -5.086653 0.000000 0.000000 0.000000 -3.648674 5.362584 -0.913571 5.118983 -9.247265 9.544936 2.259451 -2.693982 -2.193662 23.157599 58.310568 24.691779 16.287121 29.607859 4.899312 0.000000 0.000000 0.000000 
3.387102 31.155617 0.881186 0.000000 0.000000 0.000000 5.989627 -13.475905 -2.022555 -33.548209 1.291145 15.359321 51.080178 9.702361 -1.049301 -20.210084 6.548730 -13.497682 -1.354367 -1.932462 -2.575790 0.000000 0.000000 0.000000 5.006094 -10.248247 -1.366370 -17.294961 -6.391009 -16.030550 45.425788 -9.019669 -9.419381 -20.830638 2.101341 15.074004 -13.859089 -3.371987 4.034693 0.000000 0.000000 0.000000 6.773003 -7.793583 -0.620273 13.105962 2.885941 -2.250783 7.886996 6.516916 -2.401895 -0.084609 -1.702438 1.085908 0.000000 0.000000 0.000000 -2.139926 5.987407 -0.553069 -5.955880 1.185523 -0.115339 -7.260725 7.707233 6.749532 0.000000 0.000000 0.000000 -3.575201 6.033828 -0.835521 -2.167807 1.220639 -3.511353 0.992712 -2.013089 1.479326 -14.030318 1.399078 -55.365766 -12.102065 -30.851719 -4.318361 0.000000 0.000000 0.000000 -3.987105 5.369795 -0.760558 4.665788 -7.796479 9.215375 2.132152 -2.484577 -2.692350 15.607085 54.621576 30.491453 15.291006 26.733463 6.705980 0.000000 0.000000 0.000000 
3.348797 31.334742 0.779673 0.000000 0.000000 0.000000 6.121152 -13.763572 -2.457247 -32.473772 0.987735 15.759543 48.549866 9.602904 -0.532743 -19.167072 6.177813 -12.751267 -1.372609 -1.976871 -2.752611 0.000000 0.000000 0.000000 4.983494 -10.639594 -1.940085 -14.902472 -6.223965 -13.599368 39.574847 -6.522791 -8.232268 -21.058073 1.964911 15.647545 -11.034274 -2.360347 2.789843 0.000000 0.000000 0.000000 6.614956 -7.791039 -1.030091 13.263269 3.004432 -1.900927 7.509259 6.512026 -2.307251 -0.025239 -1.969115 1.044634 0.000000 0.000000 0.000000 -2.521698 5.912886 -0.411620 -6.025404 1.262342 -0.227081 -6.763538 7.002988 7.502928 0.000000 0.000000 0.000000 -3.936702 5.955143 -0.839166 -2.147505 1.923646 -3.869611 1.121469 -2.135913 1.532218 -13.942370 2.099642 -55.530695 -11.366039 -29.654219 -3.609291 0.000000 0.000000 0.000000 -4.335705 5.345615 -0.674055 4.128911 -6.494297 8.725426 1.796445 -2.193122 -2.780637 9.758105 49.881025 36.050421 15.320927 24.555022 6.892398 0.000000 0.000000 0.000000 
3.303869 31.472086 0.682100 0.000000 0.000000 0.000000 5.998707 -14.029599 -2.737809 -31.403987 1.116056 16.036002 46.549676 9.542722 -0.263253 -18.790974 6.116359 -11.689560 -1.305275 -1.977962 -2.872168 0.000000 0.000000 0.000000 4.782902 -10.921932 -2.348433 -12.211030 -5.552125 -11.656205 33.713476 -4.882431 -7.322146 -21.719945 0.910971 15.651916 -8.224057 -1.776523 2.401681 0.000000 0.000000 0.000000 6.186401 -7.918237 -1.268525 13.417239 3.043642 -1.603028 7.111464 6.463855 -2.225055 0.159020 -2.157300 1.043321 0.000000 0.000000 0.000000 -2.935267 5.819130 -0.312178 -6.004569 1.290936 -0.377265 -6.276107 6.130267 8.338794 0.000000 0.000000 0.000000 -4.303794 5.847297 -0.845494 -2.119293 2.554329 -4.069749 1.141422 -2.268976 1.562643 -13.753634 2.772514 -55.747772 -10.653799 -28.576912 -2.953227 0.000000 0.000000 0.000000 -4.689644 5.296035 -0.597522 3.556678 -5.341072 8.227883 1.290164 -2.103307 -2.551796 5.799146 44.711190 41.217746 15.928416 22.965452 5.933805 0.000000 0.000000 0.000000 
3.251634 31.584724 0.616049 0.000000 0.000000 0.000000 5.701409 -14.053729 -2.848428 -30.312735 1.620233 16.172816 44.978797 9.503908 -0.273986 -18.821527 6.323301 -10.719482 -1.364543 -1.928419 -2.901003 0.000000 0.000000 0.000000 4.464643 -11.036841 -2.544256 -9.717898 -4.624350 -10.460062 28.859786 -3.730379 -6.712404 -22.376656 -0.522320 15.482365 -5.859783 -1.478386 2.633408 0.000000 0.000000 0.000000 5.568155 -8.217150 -1.365557 13.521031 2.979796 -1.402430 6.720552 6.386343 -2.119907 0.354588 -2.264403 1.074949 0.000000 0.000000 0.000000 -3.368925 5.712952 -0.212735 -5.859495 1.276802 -0.631898 -5.832467 5.114450 9.219621 0.000000 0.000000 0.000000 -4.678882 5.725706 -0.802609 -2.081796 3.093865 -4.077948 1.163521 -2.381557 1.570808 -13.572851 3.197125 -56.038693 -9.985513 -27.677113 -2.326200 0.000000 0.000000 0.000000 -5.032825 5.226485 -0.491927 2.973047 -4.343154 7.828484 0.853057 -2.099578 -2.347240 3.614583 39.782509 45.774511 16.646505 21.969889 4.399824 0.000000 0.000000 0.000000 
3.173409 31.683022 0.537060 0.000000 0.000000 0.000000 5.293684 -13.872676 -2.797876 -29.150233 2.322071 16.108265 43.769768 9.374230 -0.513838 -18.886050 6.639501 -10.092134 -1.711507 -1.848559 -2.845629 0.000000 0.000000 0.000000 4.102610 -10.846348 -2.577608 -7.836815 -3.799770 -10.053017 25.324072 -2.736400 -6.346847 -22.656619 -1.811665 15.456752 -4.180372 -1.331448 3.140863 0.000000 0.000000 0.000000 4.943028 -8.522662 -1.354187 13.519540 2.839652 -1.302212 6.347927 6.298482 -1.975898 0.417238 -2.171774 1.063743 0.000000 0.000000 0.000000 -3.798588 5.601565 -0.088953 -5.575647 1.218946 -1.034563 -5.396408 4.040914 10.084943 0.000000 0.000000 0.000000 -5.066187 5.605319 -0.691965 -2.030716 3.529611 -3.929413 1.155413 -2.521854 1.582069 -13.427627 3.315458 -56.402992 -9.405359 -27.026352 -1.755520 0.000000 0.000000 0.000000 -5.352949 5.148429 -0.338537 2.405577 -3.494166 7.496753 0.536859 -2.401757 -2.263639 2.729703 35.440670 49.835987 17.069997 21.481391 2.737930 0.000000 0.000000 0.000000 
